<mxfile host="app.diagrams.net" modified="2023-05-20T03:35:43.282Z" agent="Mozilla/5.0 (Windows NT 10.0; Win64; x64) AppleWebKit/537.36 (KHTML, like Gecko) Chrome/113.0.0.0 Safari/537.36" etag="SqyBKTW5WHE_AWD8MOuR" version="21.3.2" type="github">
  <diagram id="C5RBs43oDa-KdzZeNtuy" name="Page-1">
    <mxGraphModel dx="1434" dy="790" grid="0" gridSize="10" guides="1" tooltips="1" connect="1" arrows="1" fold="1" page="1" pageScale="1" pageWidth="827" pageHeight="1169" background="#ffffff" math="0" shadow="0">
      <root>
        <mxCell id="WIyWlLk6GJQsqaUBKTNV-0" />
        <mxCell id="WIyWlLk6GJQsqaUBKTNV-1" parent="WIyWlLk6GJQsqaUBKTNV-0" />
        <mxCell id="IguEvuTKmepFIFM6E3DM-27" value="Program Flow:&lt;br&gt;&lt;br&gt;An instance of the Scripture class will display a scripture, including reference and text of verse/verses.&lt;br&gt;The user will be prompted to press enter to hide random words and re-display the scripture, or type &quot;quit&quot; to end the program&lt;br&gt;&lt;br&gt;The Reference class will store the book, chapter, starting verse, and ending verse(if mulitple verses).&lt;br&gt;The Word class will store each word in the text and it&#39;s hidden status.&lt;br&gt;The Scripture class stores the scriputre, including its reference using an instance of the Reference class and it&#39;s text &lt;br&gt;using an instance of the Word class.&lt;br&gt;&lt;br&gt;Each time the user presses enter, more words will be hidden, the console will clear, and the rendered&lt;br&gt;version of the scripture will be displayed.&lt;br&gt;&lt;br&gt;When all words in the scripture are hidden, the program will end." style="text;html=1;align=left;verticalAlign=middle;resizable=0;points=[];autosize=1;strokeColor=none;fillColor=none;" parent="WIyWlLk6GJQsqaUBKTNV-1" vertex="1">
          <mxGeometry x="85" y="729" width="679" height="214" as="geometry" />
        </mxCell>
        <mxCell id="IguEvuTKmepFIFM6E3DM-28" value="Jennifer Tompkins&lt;br&gt;&lt;div style=&quot;&quot;&gt;&lt;span style=&quot;background-color: initial;&quot;&gt;Scripture Memorizer Design&lt;/span&gt;&lt;/div&gt;" style="text;html=1;align=left;verticalAlign=middle;resizable=0;points=[];autosize=1;strokeColor=none;fillColor=none;" parent="WIyWlLk6GJQsqaUBKTNV-1" vertex="1">
          <mxGeometry x="39" y="23" width="167" height="41" as="geometry" />
        </mxCell>
        <mxCell id="xL8gWNdVzd0Zu4KHVVUs-29" value="Reference" style="swimlane;fontStyle=1;align=center;verticalAlign=top;childLayout=stackLayout;horizontal=1;startSize=26;horizontalStack=0;resizeParent=1;resizeParentMax=0;resizeLast=0;collapsible=1;marginBottom=0;whiteSpace=wrap;html=1;" parent="WIyWlLk6GJQsqaUBKTNV-1" vertex="1">
          <mxGeometry x="42.5" y="124" width="161.5" height="477" as="geometry" />
        </mxCell>
        <mxCell id="xL8gWNdVzd0Zu4KHVVUs-30" value="&lt;div style=&quot;border-color: var(--border-color);&quot;&gt;_book : string&lt;/div&gt;&lt;div style=&quot;border-color: var(--border-color);&quot;&gt;_chapter : int&lt;/div&gt;&lt;div style=&quot;border-color: var(--border-color);&quot;&gt;_startVerse : int&lt;/div&gt;&lt;div style=&quot;border-color: var(--border-color);&quot;&gt;_endVerse : int&lt;/div&gt;" style="text;strokeColor=none;fillColor=none;align=left;verticalAlign=top;spacingLeft=4;spacingRight=4;overflow=hidden;rotatable=0;points=[[0,0.5],[1,0.5]];portConstraint=eastwest;whiteSpace=wrap;html=1;" parent="xL8gWNdVzd0Zu4KHVVUs-29" vertex="1">
          <mxGeometry y="26" width="161.5" height="76" as="geometry" />
        </mxCell>
        <mxCell id="xL8gWNdVzd0Zu4KHVVUs-31" value="" style="line;strokeWidth=1;fillColor=none;align=left;verticalAlign=middle;spacingTop=-1;spacingLeft=3;spacingRight=3;rotatable=0;labelPosition=right;points=[];portConstraint=eastwest;strokeColor=inherit;" parent="xL8gWNdVzd0Zu4KHVVUs-29" vertex="1">
          <mxGeometry y="102" width="161.5" height="8" as="geometry" />
        </mxCell>
        <mxCell id="xL8gWNdVzd0Zu4KHVVUs-42" value="" style="endArrow=open;endFill=1;endSize=12;html=1;rounded=0;exitX=0.981;exitY=0.087;exitDx=0;exitDy=0;exitPerimeter=0;" parent="xL8gWNdVzd0Zu4KHVVUs-29" edge="1">
          <mxGeometry width="160" relative="1" as="geometry">
            <mxPoint x="159.43149999999991" y="141.9290000000001" as="sourcePoint" />
            <mxPoint x="291.5" y="141" as="targetPoint" />
          </mxGeometry>
        </mxCell>
        <mxCell id="xL8gWNdVzd0Zu4KHVVUs-32" value="&lt;div style=&quot;border-color: var(--border-color);&quot;&gt;Reference()&lt;/div&gt;&lt;div style=&quot;border-color: var(--border-color);&quot;&gt;Reference(string book,&lt;/div&gt;&lt;div style=&quot;border-color: var(--border-color);&quot;&gt;&lt;span style=&quot;white-space: pre;&quot;&gt; &lt;/span&gt;int chapter,&amp;nbsp;&lt;span style=&quot;background-color: initial;&quot;&gt;int &lt;span style=&quot;white-space: pre;&quot;&gt; &lt;/span&gt;startVerse)&lt;/span&gt;&lt;/div&gt;&lt;div style=&quot;border-color: var(--border-color);&quot;&gt;Reference(string book,&lt;/div&gt;&lt;div style=&quot;border-color: var(--border-color);&quot;&gt;&lt;span style=&quot;border-color: var(--border-color);&quot;&gt;&lt;span style=&quot;border-color: var(--border-color);&quot;&gt;&lt;span style=&quot;border-color: var(--border-color);&quot;&gt;&amp;nbsp;&amp;nbsp;&amp;nbsp;&amp;nbsp;&lt;/span&gt;&lt;/span&gt;int chapter,&lt;/span&gt;&lt;/div&gt;&lt;div style=&quot;border-color: var(--border-color);&quot;&gt;&lt;span style=&quot;border-color: var(--border-color);&quot;&gt;&lt;span style=&quot;border-color: var(--border-color);&quot;&gt;&lt;span style=&quot;border-color: var(--border-color);&quot;&gt;&amp;nbsp;&amp;nbsp;&amp;nbsp;&amp;nbsp;&lt;/span&gt;&lt;/span&gt;int startVerse,&lt;/span&gt;&lt;/div&gt;&lt;div style=&quot;border-color: var(--border-color);&quot;&gt;&lt;span style=&quot;border-color: var(--border-color);&quot;&gt;&lt;span style=&quot;border-color: var(--border-color);&quot;&gt;&lt;span style=&quot;border-color: var(--border-color);&quot;&gt;&amp;nbsp;&amp;nbsp;&amp;nbsp;&amp;nbsp;&lt;/span&gt;&lt;/span&gt;int endVerse)&lt;/span&gt;&lt;/div&gt;&lt;div style=&quot;border-color: var(--border-color);&quot;&gt;&lt;br style=&quot;border-color: var(--border-color);&quot;&gt;&lt;/div&gt;&lt;div style=&quot;border-color: var(--border-color);&quot;&gt;GetBook()&lt;/div&gt;&lt;div style=&quot;border-color: var(--border-color);&quot;&gt;SetBook(string book)&lt;/div&gt;&lt;div style=&quot;border-color: var(--border-color);&quot;&gt;GetChapter()&lt;/div&gt;&lt;div style=&quot;border-color: var(--border-color);&quot;&gt;SetChapter(int chapter)&lt;/div&gt;&lt;div style=&quot;border-color: var(--border-color);&quot;&gt;GetStartVerse()&lt;/div&gt;&lt;div style=&quot;border-color: var(--border-color);&quot;&gt;SetStartVerse(int startVerse)&lt;/div&gt;&lt;div style=&quot;border-color: var(--border-color);&quot;&gt;GetEndVerse()&lt;/div&gt;&lt;div style=&quot;border-color: var(--border-color);&quot;&gt;SetEndVerse(int endVerse)&lt;/div&gt;&lt;div style=&quot;border-color: var(--border-color);&quot;&gt;&lt;br style=&quot;border-color: var(--border-color);&quot;&gt;&lt;/div&gt;&lt;div style=&quot;border-color: var(--border-color);&quot;&gt;GetSimpleReference() : string&lt;/div&gt;&lt;div style=&quot;border-color: var(--border-color);&quot;&gt;GetMultipleReference() : string&lt;/div&gt;&lt;div style=&quot;border-color: var(--border-color);&quot;&gt;DisplayReference() : void&lt;/div&gt;" style="text;strokeColor=none;fillColor=none;align=left;verticalAlign=top;spacingLeft=4;spacingRight=4;overflow=hidden;rotatable=0;points=[[0,0.5],[1,0.5]];portConstraint=eastwest;whiteSpace=wrap;html=1;" parent="xL8gWNdVzd0Zu4KHVVUs-29" vertex="1">
          <mxGeometry y="110" width="161.5" height="367" as="geometry" />
        </mxCell>
        <mxCell id="xL8gWNdVzd0Zu4KHVVUs-34" value="Scripture" style="swimlane;fontStyle=1;align=center;verticalAlign=top;childLayout=stackLayout;horizontal=1;startSize=26;horizontalStack=0;resizeParent=1;resizeParentMax=0;resizeLast=0;collapsible=1;marginBottom=0;whiteSpace=wrap;html=1;" parent="WIyWlLk6GJQsqaUBKTNV-1" vertex="1">
          <mxGeometry x="334" y="123" width="166" height="324" as="geometry" />
        </mxCell>
        <mxCell id="xL8gWNdVzd0Zu4KHVVUs-35" value="&lt;div style=&quot;border-color: var(--border-color);&quot;&gt;_reference : Reference&lt;/div&gt;&lt;div style=&quot;border-color: var(--border-color);&quot;&gt;_text : string&lt;/div&gt;&lt;div style=&quot;border-color: var(--border-color);&quot;&gt;_words : List&amp;lt;Word&amp;gt;&lt;/div&gt;" style="text;strokeColor=none;fillColor=none;align=left;verticalAlign=top;spacingLeft=4;spacingRight=4;overflow=hidden;rotatable=0;points=[[0,0.5],[1,0.5]];portConstraint=eastwest;whiteSpace=wrap;html=1;" parent="xL8gWNdVzd0Zu4KHVVUs-34" vertex="1">
          <mxGeometry y="26" width="166" height="69" as="geometry" />
        </mxCell>
        <mxCell id="xL8gWNdVzd0Zu4KHVVUs-36" value="" style="line;strokeWidth=1;fillColor=none;align=left;verticalAlign=middle;spacingTop=-1;spacingLeft=3;spacingRight=3;rotatable=0;labelPosition=right;points=[];portConstraint=eastwest;strokeColor=inherit;" parent="xL8gWNdVzd0Zu4KHVVUs-34" vertex="1">
          <mxGeometry y="95" width="166" height="8" as="geometry" />
        </mxCell>
        <mxCell id="xL8gWNdVzd0Zu4KHVVUs-37" value="&lt;div style=&quot;border-color: var(--border-color);&quot;&gt;Scripture()&lt;/div&gt;&lt;div style=&quot;border-color: var(--border-color);&quot;&gt;Scripture(string text)&lt;/div&gt;&lt;div style=&quot;border-color: var(--border-color);&quot;&gt;Scripture(Reference reference,&lt;/div&gt;&lt;div style=&quot;border-color: var(--border-color);&quot;&gt;&lt;span style=&quot;white-space: pre;&quot;&gt;&amp;nbsp;&amp;nbsp;&amp;nbsp;&amp;nbsp;&lt;/span&gt;string text)&lt;span style=&quot;border-color: var(--border-color);&quot;&gt;&lt;/span&gt;&lt;/div&gt;&lt;div style=&quot;border-color: var(--border-color);&quot;&gt;&lt;br style=&quot;border-color: var(--border-color);&quot;&gt;&lt;/div&gt;&lt;div style=&quot;border-color: var(--border-color);&quot;&gt;GetScripture()&lt;/div&gt;&lt;div style=&quot;border-color: var(--border-color);&quot;&gt;SetScripture(string scripture)&lt;/div&gt;&lt;div style=&quot;border-color: var(--border-color);&quot;&gt;&lt;br style=&quot;border-color: var(--border-color);&quot;&gt;&lt;/div&gt;&lt;div style=&quot;border-color: var(--border-color);&quot;&gt;GetRenderedText() : string&lt;/div&gt;&lt;div style=&quot;border-color: var(--border-color);&quot;&gt;DisplayScripture() : void&lt;/div&gt;&lt;div style=&quot;border-color: var(--border-color);&quot;&gt;IsCompletelyHidden() : bool&lt;/div&gt;&lt;div style=&quot;border-color: var(--border-color);&quot;&gt;HideWords() : void&lt;/div&gt;" style="text;strokeColor=none;fillColor=none;align=left;verticalAlign=top;spacingLeft=4;spacingRight=4;overflow=hidden;rotatable=0;points=[[0,0.5],[1,0.5]];portConstraint=eastwest;whiteSpace=wrap;html=1;" parent="xL8gWNdVzd0Zu4KHVVUs-34" vertex="1">
          <mxGeometry y="103" width="166" height="221" as="geometry" />
        </mxCell>
        <mxCell id="xL8gWNdVzd0Zu4KHVVUs-38" value="Word" style="swimlane;fontStyle=1;align=center;verticalAlign=top;childLayout=stackLayout;horizontal=1;startSize=26;horizontalStack=0;resizeParent=1;resizeParentMax=0;resizeLast=0;collapsible=1;marginBottom=0;whiteSpace=wrap;html=1;" parent="WIyWlLk6GJQsqaUBKTNV-1" vertex="1">
          <mxGeometry x="595" y="123" width="160" height="223" as="geometry" />
        </mxCell>
        <mxCell id="xL8gWNdVzd0Zu4KHVVUs-39" value="&lt;div style=&quot;border-color: var(--border-color);&quot;&gt;_word : string&lt;/div&gt;&lt;div style=&quot;border-color: var(--border-color);&quot;&gt;_hidden : bool&lt;/div&gt;" style="text;strokeColor=none;fillColor=none;align=left;verticalAlign=top;spacingLeft=4;spacingRight=4;overflow=hidden;rotatable=0;points=[[0,0.5],[1,0.5]];portConstraint=eastwest;whiteSpace=wrap;html=1;" parent="xL8gWNdVzd0Zu4KHVVUs-38" vertex="1">
          <mxGeometry y="26" width="160" height="41" as="geometry" />
        </mxCell>
        <mxCell id="xL8gWNdVzd0Zu4KHVVUs-40" value="" style="line;strokeWidth=1;fillColor=none;align=left;verticalAlign=middle;spacingTop=-1;spacingLeft=3;spacingRight=3;rotatable=0;labelPosition=right;points=[];portConstraint=eastwest;strokeColor=inherit;" parent="xL8gWNdVzd0Zu4KHVVUs-38" vertex="1">
          <mxGeometry y="67" width="160" height="8" as="geometry" />
        </mxCell>
        <mxCell id="xL8gWNdVzd0Zu4KHVVUs-43" value="" style="endArrow=open;endFill=1;endSize=12;html=1;rounded=0;exitX=0.013;exitY=0.291;exitDx=0;exitDy=0;exitPerimeter=0;" parent="xL8gWNdVzd0Zu4KHVVUs-38" source="xL8gWNdVzd0Zu4KHVVUs-41" edge="1">
          <mxGeometry width="160" relative="1" as="geometry">
            <mxPoint x="65" y="116" as="sourcePoint" />
            <mxPoint x="-95" y="116" as="targetPoint" />
          </mxGeometry>
        </mxCell>
        <mxCell id="xL8gWNdVzd0Zu4KHVVUs-41" value="&lt;div style=&quot;border-color: var(--border-color);&quot;&gt;Word()&lt;/div&gt;&lt;div style=&quot;border-color: var(--border-color);&quot;&gt;Word(string text)&lt;/div&gt;&lt;div style=&quot;border-color: var(--border-color);&quot;&gt;&lt;br style=&quot;border-color: var(--border-color);&quot;&gt;&lt;/div&gt;&lt;div style=&quot;border-color: var(--border-color);&quot;&gt;GetWord(string text)&lt;/div&gt;&lt;div style=&quot;border-color: var(--border-color);&quot;&gt;SetWord(string text)&lt;/div&gt;&lt;div style=&quot;border-color: var(--border-color);&quot;&gt;&lt;br style=&quot;border-color: var(--border-color);&quot;&gt;&lt;/div&gt;&lt;div style=&quot;border-color: var(--border-color);&quot;&gt;Hide() : void&lt;/div&gt;&lt;div style=&quot;border-color: var(--border-color);&quot;&gt;IsHidden() : bool&lt;/div&gt;&lt;div style=&quot;border-color: var(--border-color);&quot;&gt;GetRenderedText():string&lt;/div&gt;" style="text;strokeColor=none;fillColor=none;align=left;verticalAlign=top;spacingLeft=4;spacingRight=4;overflow=hidden;rotatable=0;points=[[0,0.5],[1,0.5]];portConstraint=eastwest;whiteSpace=wrap;html=1;" parent="xL8gWNdVzd0Zu4KHVVUs-38" vertex="1">
          <mxGeometry y="75" width="160" height="148" as="geometry" />
        </mxCell>
      </root>
    </mxGraphModel>
  </diagram>
</mxfile>
